<svg width="64" height="64" viewBox="0 0 64 64" fill="none" xmlns="http://www.w3.org/2000/svg">
  <path d="M59.36 32.73C59.36 30.65 59.18 28.65 58.86 26.73H32V37.89H47.35C46.69 41.49 44.67 44.53 41.64 46.57V53.81H50.96C56.42 48.79 59.36 41.39 59.36 32.73Z" fill="#4285F4"/>
  <path d="M32 60C39.56 60 45.91 57.49 50.96 53.81L41.64 46.57C39.13 48.25 35.84 49.24 32 49.24C24.72 49.24 18.52 44.33 16.32 37.72H6.72V45.19C11.74 55.15 21.13 60 32 60Z" fill="#34A853"/>
  <path d="M16.32 37.72C15.76 36.04 15.44 34.25 15.44 32.4C15.44 30.55 15.76 28.76 16.32 27.08V19.61H6.72C4.67 23.68 3.52 28.21 3.52 32.4C3.52 36.59 4.67 41.12 6.72 45.19L16.32 37.72Z" fill="#FBBC05"/>
  <path d="M32 15.56C36.2 15.56 39.97 17 42.91 19.79L51.17 11.53C45.89 6.69 39.56 4 32 4C21.13 4 11.74 8.85 6.72 18.81L16.32 26.28C18.52 19.67 24.72 15.56 32 15.56Z" fill="#EA4335"/>
</svg>
